<svg xmlns="http://www.w3.org/2000/svg" viewBox="0 0 1920 1080">
  <defs>
    <style>
      .bg { fill: #F5F0EB; }
      .road { stroke: #D4CBC2; stroke-width: 3; fill: none; stroke-linecap: round; }
      .road-main { stroke: #C9BFB4; stroke-width: 5; }
      .building { fill: none; stroke: #8B7B6B; stroke-width: 1.5; }
      .building-fill { fill: #E8DFD5; }
      .tree { fill: #9CAF88; opacity: 0.6; }
      .water { fill: #B8C9D4; opacity: 0.5; }
      .text { font-family: Georgia, serif; fill: #5C4A3D; }
      .sketch { stroke: #6B5D52; stroke-width: 1; fill: none; opacity: 0.7; }
    </style>
  </defs>

  <!-- Background -->
  <rect class="bg" width="1920" height="1080"/>

  <!-- Water/Lake area -->
  <ellipse class="water" cx="750" cy="700" rx="200" ry="120"/>

  <!-- Main roads -->
  <path class="road road-main" d="M0,500 Q400,480 800,450 T1600,400 L1920,380"/>
  <path class="road road-main" d="M960,0 Q950,300 920,540 T900,1080"/>
  <path class="road" d="M200,200 Q500,250 700,300 T1100,350"/>
  <path class="road" d="M1200,100 L1150,400 Q1100,600 1050,800"/>
  <path class="road" d="M400,700 Q600,680 800,650"/>
  <path class="road" d="M100,800 Q300,750 500,720 T900,680"/>

  <!-- Buildings sketched -->
  <!-- Church area -->
  <g transform="translate(380, 280)">
    <rect class="building-fill" x="0" y="20" width="60" height="50" rx="2"/>
    <rect class="building" x="0" y="20" width="60" height="50" rx="2"/>
    <polygon class="building" points="30,0 0,20 60,20"/>
    <rect class="building" x="25" y="35" width="10" height="15"/>
    <circle class="building" cx="30" cy="10" r="4"/>
  </g>

  <!-- Hotel/Venue area -->
  <g transform="translate(1050, 450)">
    <rect class="building-fill" x="0" y="0" width="120" height="80" rx="3"/>
    <rect class="building" x="0" y="0" width="120" height="80" rx="3"/>
    <rect class="building" x="10" y="10" width="20" height="25"/>
    <rect class="building" x="40" y="10" width="20" height="25"/>
    <rect class="building" x="70" y="10" width="20" height="25"/>
    <rect class="building" x="10" y="45" width="20" height="25"/>
    <rect class="building" x="40" y="45" width="20" height="25"/>
    <rect class="building" x="70" y="45" width="20" height="25"/>
    <rect class="building" x="100" y="10" width="15" height="60"/>
  </g>

  <!-- Other buildings scattered -->
  <g class="building">
    <rect class="building-fill" x="200" y="400" width="40" height="35" rx="2"/>
    <rect x="200" y="400" width="40" height="35" rx="2"/>
  </g>
  <g class="building">
    <rect class="building-fill" x="280" y="380" width="50" height="40" rx="2"/>
    <rect x="280" y="380" width="50" height="40" rx="2"/>
  </g>
  <g class="building">
    <rect class="building-fill" x="150" y="500" width="35" height="45" rx="2"/>
    <rect x="150" y="500" width="35" height="45" rx="2"/>
  </g>
  <g class="building">
    <rect class="building-fill" x="500" y="350" width="45" height="35" rx="2"/>
    <rect x="500" y="350" width="45" height="35" rx="2"/>
  </g>
  <g class="building">
    <rect class="building-fill" x="600" y="380" width="55" height="45" rx="2"/>
    <rect x="600" y="380" width="55" height="45" rx="2"/>
  </g>
  <g class="building">
    <rect class="building-fill" x="1300" y="300" width="60" height="50" rx="2"/>
    <rect x="1300" y="300" width="60" height="50" rx="2"/>
  </g>
  <g class="building">
    <rect class="building-fill" x="1400" y="350" width="45" height="40" rx="2"/>
    <rect x="1400" y="350" width="45" height="40" rx="2"/>
  </g>
  <g class="building">
    <rect class="building-fill" x="1500" y="280" width="50" height="55" rx="2"/>
    <rect x="1500" y="280" width="50" height="55" rx="2"/>
  </g>
  <g class="building">
    <rect class="building-fill" x="850" y="550" width="40" height="35" rx="2"/>
    <rect x="850" y="550" width="40" height="35" rx="2"/>
  </g>

  <!-- Trees scattered -->
  <circle class="tree" cx="650" cy="650" r="15"/>
  <circle class="tree" cx="680" cy="680" r="12"/>
  <circle class="tree" cx="620" cy="700" r="18"/>
  <circle class="tree" cx="700" cy="720" r="14"/>
  <circle class="tree" cx="750" cy="600" r="16"/>
  <circle class="tree" cx="800" cy="650" r="13"/>
  <circle class="tree" cx="850" cy="700" r="17"/>
  <circle class="tree" cx="580" cy="750" r="15"/>
  <circle class="tree" cx="900" cy="750" r="12"/>

  <!-- More trees near buildings -->
  <circle class="tree" cx="470" cy="300" r="10"/>
  <circle class="tree" cx="350" cy="320" r="12"/>
  <circle class="tree" cx="1200" cy="480" r="14"/>
  <circle class="tree" cx="1000" cy="520" r="11"/>

  <!-- Decorative sketchy elements -->
  <path class="sketch" d="M100,100 Q150,95 200,100 T300,95"/>
  <path class="sketch" d="M1700,200 Q1750,195 1800,200 T1850,195"/>
  <path class="sketch" d="M50,900 Q100,895 150,900 T250,895"/>
  <path class="sketch" d="M1600,850 Q1650,845 1700,850 T1800,845"/>

  <!-- Small decorative marks -->
  <g class="sketch" opacity="0.4">
    <line x1="1700" y1="600" x2="1720" y2="580"/>
    <line x1="1750" y1="620" x2="1770" y2="600"/>
    <line x1="1650" y1="650" x2="1670" y2="630"/>
  </g>

  <!-- Title text at bottom -->
  <text class="text" x="960" y="1020" text-anchor="middle" font-size="24" letter-spacing="8">TIRANË</text>

</svg>